<svg width="46" height="58" viewBox="0 0 46 58" fill="none" xmlns="http://www.w3.org/2000/svg">
<g clip-path="url(#clip0_163_5394)">
<mask id="mask0_163_5394" style="mask-type:luminance" maskUnits="userSpaceOnUse" x="0" y="0" width="46" height="58">
<path d="M46 0H0V58H46V0Z" fill="white"/>
</mask>
<g mask="url(#mask0_163_5394)">
<path d="M17.3762 0.327875C17.1294 0.576608 17.0509 0.768812 17.0509 1.09669C17.0396 2.49863 16.3104 4.31891 15.323 5.39298C14.4704 6.33138 13.9094 6.65926 11.643 7.63158C6.86348 9.65536 4.96738 10.7973 3.11616 12.7645C2.02787 13.9177 1.34348 15.1162 1.0069 16.4616C0.70397 17.6487 0.300068 23.5957 0.0420189 30.5941C-0.0252981 32.3579 -0.00285913 32.6858 0.154214 32.991C0.378605 33.4206 0.647873 33.5789 1.17519 33.5789C1.39958 33.5789 1.68007 33.5224 1.80348 33.4659C2.26348 33.2058 2.31958 32.8667 2.45421 29.3957C2.53275 27.5641 2.63372 25.269 2.68982 24.308C2.75714 23.347 2.85811 21.6398 2.92543 20.5205C3.1386 16.7555 3.46397 15.8398 5.15811 14.1212C6.63909 12.6062 8.16494 11.7244 12.3387 9.94932C15.0538 8.7961 15.8728 8.29863 17.0284 7.07758C18.0718 5.95828 18.8235 4.56764 19.1377 3.13177L19.3396 2.26121H22.9972H26.6548L26.7782 2.92826C27.0699 4.51111 28.0348 6.25224 29.2801 7.46199C30.2674 8.423 30.8957 8.78479 33.2967 9.80234C37.5713 11.6 39.6245 12.7871 40.9709 14.223C42.1265 15.4553 42.6426 16.5407 42.8557 18.1236C42.9567 18.8811 43.1474 21.9337 43.4279 26.9084C43.6074 30.2663 43.686 43.7205 43.5401 47.1462C43.4055 50.3006 43.1138 54.9361 43.0128 55.3657C42.9679 55.6257 42.9567 55.6257 40.6231 55.6257H38.2782L37.8294 54.4725C36.5391 51.1372 35.9894 48.3899 35.9782 45.3372C35.9782 43.4604 36.0904 42.669 36.6962 40.193C37.1226 38.4971 38.6148 33.2398 39.8265 29.2487C40.825 25.9361 40.8474 25.7665 40.2528 25.269C39.5684 24.6924 38.6148 25.0316 38.3343 25.97C38.2445 26.2639 37.7621 27.8581 37.2684 29.5088C35.2826 36.1228 34.183 40.1591 33.8128 42.2959C33.5772 43.5961 33.5548 46.6148 33.7567 48.1637C33.9923 49.9614 34.4299 51.8382 35.0133 53.6359C35.3274 54.5743 35.6079 55.4109 35.6304 55.4787C35.6865 55.5918 34.4972 55.6257 29.9084 55.6257H24.1191V54.4951V53.3645L24.4333 53.2967C27.3504 52.6522 29.5157 50.7528 30.4806 47.9941C30.7611 47.1575 30.7948 46.954 30.7948 45.4503C30.7948 43.9466 30.7611 43.7431 30.4806 42.9064C29.5157 40.1477 27.3504 38.2483 24.4333 37.6039L24.1191 37.536V31.6117V25.6873L23.8274 25.3368C23.5806 25.0429 23.4572 24.9863 23.0309 24.9863C22.7616 24.9863 22.4362 25.0429 22.324 25.0994C21.8304 25.3707 21.8191 25.4386 21.763 31.6456L21.707 37.57L21.045 37.7283C20.6748 37.8074 20.0128 38.0561 19.564 38.2709C15.5138 40.2382 13.9206 45.145 16.0074 49.2378C16.5909 50.3684 18.1504 51.9173 19.2948 52.4939C19.766 52.7314 20.4952 53.014 20.9216 53.1271L21.707 53.3306L21.7406 54.4838L21.7743 55.6257H16.0411C12.8996 55.6257 10.3191 55.6031 10.3191 55.5805C10.3191 55.5466 10.4649 55.1283 10.6445 54.6308C11.6767 51.8043 12.2265 48.9665 12.305 45.9817C12.3835 43.483 12.2713 42.5446 11.643 39.9669C10.8913 36.8464 7.7947 26.2074 7.45811 25.5516C7.07665 24.8054 5.82007 24.8168 5.42738 25.563C5.33763 25.7438 5.27031 25.9813 5.27031 26.1056C5.27031 26.23 5.8986 28.4573 6.67275 31.0351C8.20982 36.168 9.1186 39.4468 9.60104 41.5497C9.97129 43.1778 10.0947 45.9025 9.87031 47.6889C9.60104 49.8936 9.00641 52.2791 8.17616 54.3934L7.69372 55.6257H5.32641H2.94787L2.82446 53.8959C2.57763 50.6058 2.45421 48.3107 2.37568 45.2694C2.28592 41.855 2.25226 41.7419 1.51177 41.4932C1.0069 41.3236 0.401044 41.5045 0.142995 41.9115C-0.0140786 42.1602 -0.0252981 42.5559 0.0307994 45.5407C0.131775 50.0858 0.546897 56.3719 0.793727 57.1747C1.04056 57.9435 -0.833103 57.8869 22.9972 57.8869H44.606L44.9089 57.5704C45.1894 57.2764 45.223 57.1294 45.3801 55.5579C45.8626 50.4476 45.9411 48.1524 45.9411 38.6667C45.9411 29.26 45.8738 27.191 45.3801 20.0682C45.1894 17.2982 45.0772 16.6199 44.6621 15.5345C44.0001 13.8273 42.4406 12.0183 40.4884 10.7068C39.2543 9.88148 36.9318 8.71696 34.4411 7.6768C32.1972 6.7384 31.4904 6.33138 30.6826 5.47212C29.6952 4.44327 29.1343 3.15438 28.9548 1.46978C28.865 0.644444 28.8089 0.474856 28.5509 0.260041L28.2591 0H22.986H17.7016L17.3762 0.327875ZM24.5791 40.1251C25.9591 40.6 26.8904 41.3123 27.6196 42.4429C29.2913 45.0546 28.5172 48.5142 25.8694 50.1875C24.8821 50.8093 24.0294 51.0242 22.7391 50.9676C21.6957 50.9337 21.5162 50.8885 20.7196 50.5154C18.6777 49.5318 17.466 47.655 17.4772 45.4503C17.4772 42.963 19.0479 40.8487 21.4826 40.0686C22.1894 39.8425 23.8611 39.8764 24.5791 40.1251Z" fill="#F7B438"/>
<path d="M21.4489 42.4091C20.2372 43.0083 19.6313 44.0372 19.6313 45.4504C19.6313 46.8637 20.2372 47.8925 21.4489 48.4917C22.0323 48.797 22.2567 48.8422 22.9972 48.8422C23.7377 48.8422 23.9621 48.797 24.5455 48.4917C25.7572 47.8925 26.3631 46.875 26.3631 45.4391C26.3631 43.4379 24.9831 42.0586 22.986 42.0586C22.2567 42.0586 22.0323 42.1038 21.4489 42.4091ZM23.7265 44.7155C24.3772 45.36 23.906 46.468 22.9972 46.468C22.3689 46.468 21.9874 46.0835 21.9874 45.4504C21.9874 44.8173 22.3689 44.4329 22.9972 44.4329C23.3338 44.4329 23.5245 44.5007 23.7265 44.7155Z" fill="#F7B438"/>
<path d="M12.7115 27.9711C12.4422 28.1972 12.3974 28.3329 12.3974 28.7965C12.3974 29.3165 12.4534 29.4183 13.2276 30.4019C14.0242 31.3968 14.0466 31.4534 13.8334 31.6004C12.8686 32.2787 12.4647 32.697 12.3974 33.0588C12.3525 33.2736 12.3525 33.5676 12.3974 33.7146C12.5208 34.0877 14.8881 37.4004 15.1461 37.536C15.5388 37.7508 16.2344 37.6717 16.571 37.3777C16.8291 37.1516 16.8852 37.0159 16.8852 36.5524C16.8852 36.0549 16.8178 35.908 16.0325 34.8113L15.1686 33.6128L15.9427 33.0249C17.3227 31.9848 17.2891 31.6569 15.5837 29.4974C14.8993 28.6269 14.2486 27.8694 14.1364 27.8128C13.7437 27.598 13.0481 27.6772 12.7115 27.9711Z" fill="#316A67"/>
<path d="M31.841 27.8128C31.74 27.8806 31.1005 28.6381 30.4049 29.5087C28.7107 31.6568 28.6771 31.9847 30.0571 33.0249L30.8312 33.6128L29.9673 34.8112C29.182 35.9079 29.1146 36.0549 29.1146 36.5523C29.1146 37.0159 29.1707 37.1516 29.4288 37.3777C29.7654 37.6716 30.461 37.7508 30.8537 37.536C31.1117 37.4003 33.479 34.0876 33.6024 33.7145C33.6473 33.5675 33.6473 33.2736 33.6024 33.0588C33.5351 32.697 33.1312 32.2787 32.1663 31.6003C31.9532 31.4533 31.9756 31.3968 32.761 30.4132C33.4229 29.5765 33.58 29.2939 33.6361 28.8868C33.681 28.4459 33.6473 28.3555 33.3444 28.0389C33.0639 27.7675 32.9068 27.6997 32.5142 27.6997C32.2449 27.6997 31.9532 27.7562 31.841 27.8128Z" fill="#316A67"/>
<path d="M0.594634 36.4622C0.145854 36.6544 0 36.937 0 37.5702C0 37.9998 0.0560976 38.1242 0.347805 38.3729C0.583415 38.5764 0.819024 38.6669 1.12195 38.6669C1.42488 38.6669 1.66049 38.5764 1.8961 38.3729C2.1878 38.1242 2.2439 37.9998 2.2439 37.5702C2.2439 36.9257 2.08683 36.6544 1.62683 36.4509C1.15561 36.2587 1.05463 36.2587 0.594634 36.4622Z" fill="#F7B438"/>
</g>
</g>
<defs>
<clipPath id="clip0_163_5394">
<rect width="46" height="58" fill="white"/>
</clipPath>
</defs>
</svg>
