<svg width="57" height="57" viewBox="0 0 57 57" fill="none" xmlns="http://www.w3.org/2000/svg">
<g clip-path="url(#clip0_163_3860)">
<path d="M31.1162 0.104228C29.9139 0.260088 27.9211 0.738799 26.6742 1.16184C18.4916 3.97844 12.658 11.07 11.4111 19.6979C11.1996 21.2231 11.1885 24.485 11.4111 26.0102C11.7897 28.6598 12.5022 30.8975 13.8158 33.5472C14.2945 34.5268 14.7844 35.6513 14.8846 36.052C15.1518 37.0651 15.1295 38.8798 14.84 39.8372C14.6842 40.3604 9.25135 55.1782 8.62792 56.7813C8.54999 56.9706 9.25135 56.9817 22.4104 56.9817H36.2596L36.5156 55.6235C36.6492 54.8665 36.8496 53.82 36.9498 53.2856L37.1279 52.3282L39.3545 53.0407C40.5791 53.4304 41.8928 53.7977 42.2824 53.8534C43.674 54.0649 45.2438 53.6085 46.3014 52.6845C47.2365 51.8718 47.5148 51.2817 48.6504 47.6636L49.708 44.3126L50.6543 44.2458C51.1775 44.2124 52.7695 44.1456 54.1945 44.1122C56.4656 44.0454 56.7773 44.012 56.7773 43.8561C56.7773 43.7559 56.4768 40.572 56.0982 36.7645L55.4191 29.8511L56.0871 27.6913C56.9221 25.0083 57.0445 24.1622 56.9666 21.468C56.9221 19.8427 56.8441 19.1302 56.6215 18.0948C55.1408 11.2481 50.5096 5.34778 44.1973 2.27512C41.9484 1.17298 39.7664 0.516142 37.1279 0.14876C35.8922 -0.0293656 32.3742 -0.0516312 31.1162 0.104228ZM37.8961 3.76692C41.8705 4.62415 45.1102 6.34973 47.8266 9.06614C51.4781 12.7177 53.5488 17.4714 53.5488 22.1917C53.5488 24.0843 53.4598 24.5518 52.6137 27.2014L51.9012 29.4391L52.4467 34.8831C52.7361 37.8889 52.9811 40.4161 52.9922 40.5163C52.9922 40.6833 52.725 40.7055 50.799 40.7723C49.5856 40.8169 48.2607 40.8725 47.86 40.9059L47.1363 40.9727L45.8115 45.1587C45.0879 47.4632 44.3865 49.5339 44.2418 49.7565C44.0637 50.0348 43.8299 50.2241 43.4848 50.3577L42.9838 50.547L38.7311 49.1999C36.3932 48.454 34.4672 47.8639 34.4561 47.8751C34.4449 47.8973 34.1889 49.1888 33.8994 50.7473C33.61 52.3059 33.365 53.5973 33.3539 53.6196C33.3316 53.6307 28.8674 53.6307 23.4123 53.6196L13.5041 53.5862L15.5525 48.0755C16.6658 45.0473 17.7568 42.0415 17.9684 41.3958C18.4916 39.8038 18.6586 38.2786 18.4916 36.7757C18.3024 35.0723 18.0129 34.1929 16.9775 32.0999C15.9645 30.0514 15.419 28.5596 15.0182 26.6448C14.7844 25.5538 14.751 25.1419 14.751 22.804C14.7621 20.3325 14.7732 20.1098 15.0738 18.863C16.5322 12.6509 20.2172 7.97512 25.7168 5.33665C27.3533 4.55735 28.7449 4.08977 30.3147 3.77805C31.9734 3.44407 31.9178 3.4552 34.4561 3.4886C36.3375 3.522 37.0166 3.56653 37.8961 3.76692Z" fill="#F7B438"/>
<path d="M24.926 17.0038C23.4898 17.4602 22.165 18.5735 21.5527 19.8204C21.2076 20.5329 19.8828 24.7188 19.7158 25.6317C19.3596 27.5688 19.7715 29.762 20.8291 31.5766C21.3857 32.5118 22.7439 33.8366 23.5455 34.2262C24.1467 34.5157 24.3248 34.5491 25.3268 34.5491C26.351 34.5491 26.4957 34.5157 27.1859 34.1928C28.032 33.792 28.8447 33.0907 29.2232 32.445C29.7576 31.5098 29.8133 31.5766 27.9986 30.9977L26.3732 30.4745L26.0504 30.8196C25.6719 31.2204 25.3268 31.2426 24.8146 30.8975C23.4008 29.9512 22.6994 27.5688 23.256 25.6873C24.1355 22.7706 24.6477 21.3233 24.9037 21.0227C25.6051 20.1877 26.8297 19.9873 27.7537 20.5663C28.4328 21.0004 28.7557 21.635 28.7557 22.4922L28.7445 23.1379L30.3143 23.6278C31.1826 23.9061 31.9285 24.0954 31.973 24.0508C32.0287 23.9952 32.1066 23.5944 32.1623 23.1491C32.5185 20.377 30.9043 17.8165 28.2992 17.0149C27.3752 16.7254 25.8055 16.7254 24.926 17.0038Z" fill="#F7B438"/>
<path d="M5.09849 33.7476C4.58638 34.4267 4.12994 35.0501 4.08541 35.128C4.02974 35.2171 4.37486 35.5399 5.06509 36.0632C5.644 36.4974 6.12271 36.8981 6.12271 36.9427C6.12271 36.9872 5.69966 37.3546 5.17642 37.7665C4.65318 38.1784 4.23013 38.5569 4.23013 38.5903C4.24127 38.6571 9.82994 42.8542 10.0303 42.9321C10.0749 42.9544 10.4422 42.4979 10.8653 41.9302C11.2772 41.3624 11.7337 40.739 11.8895 40.5386L12.1567 40.1823L11.0211 39.3474L9.89673 38.5124L10.9098 37.7108C11.4554 37.2767 11.9118 36.887 11.9007 36.8425C11.9007 36.7757 6.51236 32.7567 6.17838 32.5786C6.07818 32.5229 5.7442 32.8792 5.09849 33.7476Z" fill="#F7B438"/>
<path d="M0.233575 43.767C0.0443179 45.2143 -0.0447447 46.1829 0.0220522 46.1829C0.255841 46.1829 2.60487 46.528 2.6494 46.5725C2.67166 46.5948 2.48241 47.1292 2.22635 47.7415C1.9703 48.3538 1.78104 48.8993 1.82557 48.9327C1.91463 49.0329 8.89491 49.9012 8.97284 49.8233C9.05077 49.7454 9.46268 46.6059 9.40702 46.5057C9.37362 46.4723 8.75018 46.3721 8.01541 46.2942C6.87987 46.1717 6.67948 46.1272 6.73514 45.9713C6.76854 45.8711 6.9912 45.3145 7.22498 44.7356C7.51444 44.0454 7.62577 43.6668 7.5367 43.6557C7.45877 43.6334 6.00037 43.4553 4.28592 43.2327C2.57147 43.0211 0.990607 42.8208 0.76795 42.7874L0.367169 42.7317L0.233575 43.767Z" fill="#F7B438"/>
</g>
<defs>
<clipPath id="clip0_163_3860">
<rect width="57" height="57" fill="white"/>
</clipPath>
</defs>
</svg>
